<svg xmlns="http://www.w3.org/2000/svg" width="3840" height="2160" viewBox="0 0 3840 2160">
  <defs>
    <style>
      .cls-1 {
        fill: #00b5e6;
        fill-rule: evenodd;
      }
    </style>
  </defs>
  <path id="Forma_2" data-name="Forma 2" class="cls-1" d="M4036-203c-1.05-.253-1587.04-80.707-1703.25,91.721C2264.75-10.37,2252.62,18.889,2061,93c-211.71,81.879-301.61,107.737-536,344-82.27,82.926,47.31,307.821,95,507,49.04,204.82-251.93,473.34-222,575,28,95.1,534.73,148.45,685,161,145.32,12.14,776.9-72.29,1019,166,161.01,158.47,615,307,615,307l-102,594L225,2892l-1299-899L-363-341,3557-442Z"/>
</svg>
